<svg width="40" height="40" viewBox="0 0 40 40" fill="none" xmlns="http://www.w3.org/2000/svg">
<path d="M37.0961 9.66407C34.3351 5.0931 29.9595 1.87032 24.7748 0.590797C19.5908 -0.689347 14.2175 0.126348 9.64648 2.88734L10.3355 4.02826C14.6013 1.45188 19.6154 0.690796 24.4549 1.885C29.2944 3.07991 33.3782 6.08746 35.9546 10.3538C40.1284 17.2652 39.4006 26.0259 34.1426 32.153L35.1542 33.0213C40.7881 26.4558 41.5684 17.07 37.0961 9.66407Z" fill="#395E95"/>
<path d="M31.569 34.6306C27.6625 37.7261 22.7849 39.1142 17.8328 38.5405C12.882 37.9667 8.45103 35.499 5.35551 31.5924C-0.388967 24.3425 0.0921222 13.8258 6.47378 7.12964L5.50941 6.20996C-1.32935 13.3846 -1.8445 24.6524 4.31052 32.4201C7.62728 36.6058 12.3748 39.2496 17.6795 39.8646C18.4626 39.9552 19.2436 39.9999 20.0207 39.9999C24.5043 39.9999 28.8293 38.5018 32.3966 35.6755L31.569 34.6306Z" fill="#395E95"/>
<path d="M20.6536 30.6621H19.3208V38.5792H20.6536V30.6621Z" fill="#395E95"/>
<path d="M20.6536 10.6699H19.3208V19.3334H20.6536V10.6699Z" fill="#395E95"/>
<path d="M20.6536 0.67334H19.3208V6.00475H20.6536V0.67334Z" fill="#395E95"/>
<path d="M39.3135 19.333H29.9836V20.6658H39.3135V19.333Z" fill="#395E95"/>
<path d="M18.6545 19.333H15.9888V20.6658H18.6545V19.333Z" fill="#395E95"/>
<path d="M11.324 19.333H0.661377V20.6658H11.324V19.333Z" fill="#395E95"/>
<path d="M36.6477 9.33691H23.9858V10.6697H36.6477V9.33691Z" fill="#395E95"/>
<path d="M19.9867 9.33691H3.11963V10.6697H19.9867V9.33691Z" fill="#395E95"/>
<path d="M36.8543 29.3291H32.6492V30.6619H36.8543V29.3291Z" fill="#395E95"/>
<path d="M19.9872 29.3291H19.3208V30.6619H19.9872V29.3291Z" fill="#395E95"/>
<path d="M19.321 29.3291H3.99341V30.6619H19.321V29.3291Z" fill="#395E95"/>
<path d="M14.614 1.76195L13.4711 1.07617C6.46438 12.7478 6.46438 27.249 13.4711 38.9213L14.614 38.2349C7.86124 26.9865 7.86124 13.0104 14.614 1.76195Z" fill="#395E95"/>
<path d="M28.4609 31.7725C27.6679 34.0176 26.643 36.1921 25.4141 38.2347L26.5556 38.9218C27.8318 36.8019 28.8955 34.5461 29.7184 32.2163L28.4609 31.7725Z" fill="#395E95"/>
<path d="M26.5569 1.07617L25.4141 1.76257C28.7228 7.26986 30.4708 13.5761 30.4702 19.999H31.803C31.8036 13.3342 29.9896 6.79065 26.5569 1.07617Z" fill="#395E95"/>
<path d="M24.6522 16.667C20.2426 16.667 16.6553 20.2543 16.6553 24.6639C16.6553 29.0736 20.2426 32.6609 24.6522 32.6609C29.0619 32.6609 32.6492 29.0736 32.6492 24.6639C32.6492 20.2543 29.0619 16.667 24.6522 16.667ZM24.6522 31.3281C20.9776 31.3281 17.9881 28.3386 17.9881 24.6639C17.9881 20.9893 20.977 17.9998 24.6522 17.9998C28.3269 17.9998 31.3164 20.9894 31.3164 24.6639C31.3164 28.3386 28.3268 31.3281 24.6522 31.3281Z" fill="#395E95"/>
<path d="M20.6536 24.6636H19.3208C19.3208 27.6032 21.7126 29.995 24.6522 29.995H24.6529V28.6622C22.4477 28.6621 20.6536 26.8688 20.6536 24.6636Z" fill="#395E95"/>
<path d="M25.4133 19.3862L25.2234 20.7051C27.1774 20.9863 28.6508 22.6883 28.6508 24.6636H29.9836C29.9836 22.0299 28.019 19.7614 25.4133 19.3862Z" fill="#395E95"/>
<path d="M39.7847 36.1879L31.7877 28.1909L30.8454 29.1333L38.3712 36.6591L36.6479 38.3825L29.122 30.8566L28.1797 31.7989L36.1766 39.7959C36.3066 39.9258 36.4772 39.9911 36.6478 39.9911C36.8184 39.9911 36.989 39.9258 37.119 39.7959L39.7847 37.1302C40.0452 36.8696 40.0452 36.4484 39.7847 36.1879Z" fill="#395E95"/>
<path d="M9.02143 1.78556C8.51495 1.49298 7.9398 1.33908 7.3634 1.33908C7.34872 1.33838 7.33278 1.3397 7.32012 1.33908C6.43247 1.33908 5.5974 1.68431 4.96835 2.31071C4.33789 2.93914 3.98937 3.77546 3.98805 4.66514C3.98672 5.27357 4.15195 5.87068 4.46656 6.39184L6.79771 10.341C6.91763 10.5443 7.13559 10.6689 7.37145 10.6689C7.37278 10.6689 7.37481 10.6689 7.37543 10.6696C7.6127 10.6683 7.83129 10.541 7.94918 10.3351L10.241 6.33794C11.1592 4.74647 10.6121 2.70453 9.02143 1.78556ZM9.08604 5.67208L7.36332 8.67698L5.61334 5.71146C5.61201 5.70943 5.61069 5.70747 5.60936 5.70544C5.42006 5.39224 5.32014 5.03373 5.32147 4.6678C5.32217 4.13335 5.53139 3.63156 5.90928 3.255C6.28716 2.87914 6.78763 2.67188 7.32942 2.67188C7.33012 2.67188 7.33145 2.67188 7.33278 2.67188C7.67535 2.67657 8.04519 2.75985 8.35574 2.93914C9.30995 3.49093 9.63854 4.71584 9.08604 5.67208Z" fill="#395E95"/>
<path d="M7.97856 4.00537H6.64575V5.33818H7.97856V4.00537Z" fill="#395E95"/>
<path d="M17.1916 17.8045C16.9611 16.9441 16.4099 16.2258 15.6389 15.7806C15.1391 15.492 14.57 15.3381 14.0009 15.3348C13.1152 15.3234 12.2682 15.6519 11.6284 16.2704C10.9886 16.8888 10.6275 17.7198 10.6128 18.6095C10.6022 19.2366 10.7674 19.851 11.0913 20.3875L13.4151 24.3354C13.535 24.5386 13.7536 24.6639 13.9896 24.6639C13.9909 24.6639 13.9916 24.6639 13.9929 24.6646C14.2302 24.6633 14.4494 24.536 14.5674 24.3294L16.8585 20.3328C17.3036 19.5618 17.4215 18.6642 17.1916 17.8045ZM15.7028 19.6678L13.9814 22.6706L12.2374 19.7078C12.2361 19.7051 12.2347 19.7024 12.2334 19.7004C12.0382 19.3785 11.9382 19.0087 11.9448 18.6315C11.9535 18.0977 12.17 17.5993 12.5539 17.228C12.9298 16.8648 13.4216 16.6662 13.9494 16.6662C13.9614 16.6662 13.9734 16.6662 13.9847 16.6669C14.3306 16.669 14.6724 16.7615 14.9724 16.9348C15.9268 17.4859 16.2553 18.7115 15.7028 19.6678Z" fill="#395E95"/>
<path d="M14.6094 18.0005H13.2766V19.3333H14.6094V18.0005Z" fill="#395E95"/>
<path d="M25.1888 7.14092C24.9582 6.28054 24.4071 5.56219 23.6367 5.11704C23.1368 4.82845 22.5671 4.67454 21.9979 4.67118C21.1362 4.65985 20.2652 4.98837 19.6255 5.6068C18.9857 6.22523 18.6245 7.05624 18.6099 7.94592C18.5992 8.57302 18.7645 9.18747 19.0884 9.72395L21.4122 13.6725C21.5321 13.8758 21.7507 14.001 21.9866 14.001C21.9879 14.001 21.9893 14.001 21.9913 14.001C22.2286 13.9997 22.4472 13.8724 22.5651 13.6665L24.8562 9.66934C25.3014 8.89825 25.4194 8.0006 25.1888 7.14092ZM23.7007 9.00489L21.9787 12.0085L20.2346 9.04489C20.2333 9.04223 20.232 9.03958 20.2306 9.03755C20.0354 8.71567 19.9354 8.34583 19.942 7.96865C19.9507 7.43483 20.1673 6.93639 20.5512 6.56515C20.927 6.20195 21.4188 6.00336 21.9466 6.00336C21.9593 6.00336 21.9713 6.00336 21.9826 6.00406C22.3285 6.00609 22.6697 6.09867 22.9696 6.27195C23.9246 6.82304 24.2525 8.04857 23.7007 9.00489Z" fill="#395E95"/>
<path d="M22.6063 7.3374H21.2734V8.67022H22.6063V7.3374Z" fill="#395E95"/>
</svg>
