<svg width="40" height="40" viewBox="0 0 40 40" fill="none" xmlns="http://www.w3.org/2000/svg">
<path d="M17.4194 14.1934C16.3523 14.1934 15.4839 15.0617 15.4839 16.1288C15.4839 17.1959 16.3523 18.0643 17.4194 18.0643C18.4865 18.0643 19.3549 17.1959 19.3549 16.1288C19.3549 15.0617 18.4865 14.1934 17.4194 14.1934ZM17.4194 16.774C17.0632 16.774 16.7742 16.4843 16.7742 16.1288C16.7742 15.7734 17.0632 15.4837 17.4194 15.4837C17.7755 15.4837 18.0645 15.7734 18.0645 16.1288C18.0645 16.4843 17.7755 16.774 17.4194 16.774Z" fill="#395E95"/>
<path d="M9.67743 14.1934C8.61033 14.1934 7.74194 15.0617 7.74194 16.1288C7.74194 17.1959 8.61033 18.0643 9.67743 18.0643C10.7445 18.0643 11.6129 17.1959 11.6129 16.1288C11.6129 15.0617 10.7445 14.1934 9.67743 14.1934ZM9.67743 16.774C9.3213 16.774 9.03227 16.4843 9.03227 16.1288C9.03227 15.7734 9.3213 15.4837 9.67743 15.4837C10.0336 15.4837 10.3226 15.7734 10.3226 16.1288C10.3226 16.4843 10.0336 16.774 9.67743 16.774Z" fill="#395E95"/>
<path d="M24.5161 29.6772H25.8064V30.9676H24.5161V29.6772Z" fill="#395E95"/>
<path d="M27.0967 29.6772H28.387V30.9676H27.0967V29.6772Z" fill="#395E95"/>
<path d="M29.6775 29.6772H30.9678V30.9676H29.6775V29.6772Z" fill="#395E95"/>
<path d="M37.4195 14.1936V7.74198C37.4195 7.03037 36.8408 6.45166 36.1291 6.45166H29.6775C28.9659 6.45166 28.3872 7.03037 28.3872 7.74198V14.1936C28.3872 14.9052 28.9659 15.4839 29.6775 15.4839H36.1291C36.8408 15.4839 37.4195 14.9052 37.4195 14.1936ZM32.2582 7.74198H33.5485V8.6336L32.9033 8.31101L32.2582 8.6336V7.74198ZM29.6775 7.74198H30.9679V10.7213L32.9033 9.7536L34.8388 10.7213V7.74198H36.1291L36.1298 14.1936H29.6775V7.74198Z" fill="#395E95"/>
<path d="M31.4761 19.5303C31.64 20.1871 32.2271 20.6452 32.9032 20.6452C33.5794 20.6452 34.1665 20.1871 34.3303 19.5303L34.6968 18.0645H38.0645C39.1316 18.0645 40 17.1961 40 16.129V5.80645C40 4.73935 39.1316 3.87097 38.0645 3.87097H27.7419C26.6748 3.87097 25.8064 4.73935 25.8064 5.80645V14.8555C25.4297 14.5703 24.9955 14.3568 24.5161 14.2594V10.9677C24.5161 4.92 19.5961 0 13.5484 0C7.50065 0 2.58065 4.92 2.58065 10.9677V14.2587C1.11032 14.5587 0 15.8619 0 17.4194C0 19.1981 1.4471 20.6452 3.22581 20.6452H3.87097V21.9355C3.87097 23.9535 5.42323 25.6135 7.39613 25.789C6.81032 26.4516 6.45161 27.3187 6.45161 28.271V32.2581V40H14.1935H35.6813C36.6323 40 37.4348 39.3194 37.5903 38.3826L39.9748 24.0729C39.991 23.9735 40 23.8729 40 23.7723C40 22.7594 39.1761 21.9355 38.1632 21.9355H37.769C36.88 21.9355 36.12 22.5697 35.9619 23.4439L33.6555 36.129H24.451C24.151 34.6587 22.8484 33.5484 21.2903 33.5484H18.6581L18.4013 30.4645C18.2348 28.4619 17.2052 26.6806 15.6426 25.5316C18.1968 24.8716 20.2858 23.0439 21.289 20.6458H23.871C25.4748 20.6458 26.7987 19.4658 27.0452 17.9303C27.2619 18.0135 27.4955 18.0645 27.7419 18.0645H31.1097L31.4761 19.5303ZM13.5484 1.29032C18.8845 1.29032 23.2258 5.63161 23.2258 10.9677V14.1935H21.9355V12.3626C21.9355 12.3271 21.9284 12.2929 21.9271 12.2581H21.9355V10.9677C21.9355 6.34323 18.1729 2.58065 13.5484 2.58065C8.92387 2.58065 5.16129 6.34323 5.16129 10.9677V12.9032V14.1935H3.87097V10.9677C3.87097 5.63161 8.21226 1.29032 13.5484 1.29032ZM17.6316 6.70258L16.9781 6.48452L16.5697 7.70839L17.2232 7.92645C17.7264 8.09419 18.0645 8.56258 18.0645 9.0929C18.0645 9.77097 17.5135 10.3226 16.8355 10.3226H7.74194C7.27613 10.3226 6.84452 10.4561 6.46645 10.6735C6.62258 6.89742 9.73484 3.87097 13.5484 3.87097C17.1665 3.87097 20.1555 6.59419 20.5865 10.0981C20.4548 10.0265 20.3168 9.96323 20.171 9.91484L19.2968 9.62323C19.3335 9.45161 19.3548 9.27484 19.3548 9.0929C19.3548 8.0071 18.6626 7.04645 17.6316 6.70258ZM3.87097 15.4839H5.16129V17.4194C5.16129 18.0806 5.24323 18.7284 5.39097 19.3548H3.87097V15.4839ZM1.29032 17.4194C1.29032 16.5794 1.83161 15.8697 2.58065 15.6026V19.2355C1.83161 18.969 1.29032 18.2594 1.29032 17.4194ZM5.16129 21.9355V20.6452H5.8071C6.46323 22.2219 7.59355 23.5813 9.07806 24.5161H7.74194C6.31871 24.5161 5.16129 23.3587 5.16129 21.9355ZM13.5484 21.9355C12.74 21.9355 12.0335 21.4103 11.7968 20.6452H15.3C15.0632 21.4103 14.3568 21.9355 13.5484 21.9355ZM12.2581 23.2258C12.6142 23.2258 12.9032 23.5155 12.9032 23.871C12.9032 24.2264 12.6142 24.5161 12.2581 24.5161H10.5065C10.7432 23.751 11.4497 23.2258 12.2581 23.2258ZM7.74194 38.7097V36.5284C8.31613 37.3929 9.05871 38.1355 9.92323 38.7097H7.74194ZM7.74194 32.2581V28.271C7.74194 26.9123 8.8471 25.8064 10.2058 25.8064C11.4245 25.8064 12.4735 26.7161 12.6452 27.9226L13.509 33.9658L12.4471 35.0277L13.3594 35.94L14.4606 34.8387H20.6452V38.7097H14.1935C10.6361 38.7097 7.74194 35.8155 7.74194 32.2581ZM35.6813 38.7097H21.9355V37.4194H36.4426L36.3174 38.171C36.2658 38.4832 35.9981 38.7097 35.6813 38.7097ZM37.2316 23.6742C37.2781 23.4142 37.5045 23.2258 37.769 23.2258H38.1632C38.4645 23.2258 38.7097 23.471 38.7097 23.7723C38.7097 23.8026 38.7071 23.8329 38.7019 23.8619L36.6574 36.129H34.9658L37.2316 23.6742ZM23.1071 36.129H21.9355V34.9574C22.4819 35.1523 22.9123 35.5826 23.1071 36.129ZM17.1155 30.5716L17.3639 33.5484H14.7529L13.9232 27.74C13.8148 26.9832 13.4723 26.3116 12.9865 25.7729C13.1258 25.7819 13.2639 25.7948 13.4032 25.7974C15.4774 26.5155 16.9329 28.3806 17.1155 30.5716ZM20.6452 17.4194C20.6452 21.1523 17.7465 24.2142 14.0832 24.489C14.1497 24.2935 14.1935 24.0884 14.1935 23.871C14.1935 23.6277 14.1432 23.3974 14.0613 23.1826C15.2735 22.9819 16.2735 22.0839 16.5787 20.8594L16.9555 19.3548H10.1413L10.5181 20.8594C10.6387 21.3432 10.8729 21.771 11.1806 22.1303C10.5568 22.3594 10.0194 22.7806 9.6529 23.3355C7.66903 22.0284 6.45161 19.8245 6.45161 17.4194V12.9032C6.45161 12.1916 7.03032 11.6129 7.74194 11.6129H16.8355C17.5729 11.6129 18.231 11.2884 18.6923 10.7819L19.7626 11.1387C20.2903 11.3148 20.6452 11.8065 20.6452 12.3626V17.4194ZM21.9355 17.4194V15.4839H23.2258V19.3548H21.7013C21.849 18.7323 21.9355 18.0865 21.9355 17.4194ZM24.5161 19.2361V15.6032C25.2652 15.8703 25.8064 16.58 25.8064 17.42C25.8064 18.26 25.2652 18.969 24.5161 19.2361ZM27.0968 16.129V5.80645C27.0968 5.45097 27.3858 5.16129 27.7419 5.16129H38.0645C38.4206 5.16129 38.7097 5.45097 38.7097 5.80645V16.129C38.7097 16.4845 38.4206 16.7742 38.0645 16.7742H33.6903L33.0794 19.2174C33.0387 19.3794 32.7684 19.3794 32.7277 19.2174L32.1161 16.7742H27.7419C27.3858 16.7742 27.0968 16.4845 27.0968 16.129Z" fill="#395E95"/>
</svg>
