<svg width="38" height="32" viewBox="0 0 38 32" fill="none" xmlns="http://www.w3.org/2000/svg">
<path d="M37.125 21.75H0.875C0.53 21.75 0.25 21.47 0.25 21.125V1.125C0.25 0.78 0.53 0.5 0.875 0.5H37.125C37.47 0.5 37.75 0.78 37.75 1.125V21.125C37.75 21.47 37.47 21.75 37.125 21.75ZM1.5 20.5H36.5V1.75H1.5V20.5Z" fill="#395E95"/>
<path d="M34 19.25H33.375C33.03 19.25 32.75 18.97 32.75 18.625V3.625C32.75 3.28 33.03 3 33.375 3H34C34.345 3 34.625 3.28 34.625 3.625C34.625 3.97 34.345 4.25 34 4.25V18C34.345 18 34.625 18.28 34.625 18.625C34.625 18.97 34.345 19.25 34 19.25Z" fill="#395E95"/>
<path d="M30.25 19.25H29.625C29.28 19.25 29 18.97 29 18.625V3.625C29 3.28 29.28 3 29.625 3H30.25C30.595 3 30.875 3.28 30.875 3.625C30.875 3.97 30.595 4.25 30.25 4.25V18C30.595 18 30.875 18.28 30.875 18.625C30.875 18.97 30.595 19.25 30.25 19.25Z" fill="#395E95"/>
<path d="M26.5 19.25H25.875C25.53 19.25 25.25 18.97 25.25 18.625V3.625C25.25 3.28 25.53 3 25.875 3H26.5C26.845 3 27.125 3.28 27.125 3.625C27.125 3.97 26.845 4.25 26.5 4.25V18C26.845 18 27.125 18.28 27.125 18.625C27.125 18.97 26.845 19.25 26.5 19.25Z" fill="#395E95"/>
<path d="M22.75 19.25H22.125C21.78 19.25 21.5 18.97 21.5 18.625V3.625C21.5 3.28 21.78 3 22.125 3H22.75C23.095 3 23.375 3.28 23.375 3.625C23.375 3.97 23.095 4.25 22.75 4.25V18C23.095 18 23.375 18.28 23.375 18.625C23.375 18.97 23.095 19.25 22.75 19.25Z" fill="#395E95"/>
<path d="M19 19.25H18.375C18.03 19.25 17.75 18.97 17.75 18.625V3.625C17.75 3.28 18.03 3 18.375 3H19C19.345 3 19.625 3.28 19.625 3.625C19.625 3.97 19.345 4.25 19 4.25V18C19.345 18 19.625 18.28 19.625 18.625C19.625 18.97 19.345 19.25 19 19.25Z" fill="#395E95"/>
<path d="M15.25 19.25H14.625C14.28 19.25 14 18.97 14 18.625V3.625C14 3.28 14.28 3 14.625 3H15.25C15.595 3 15.875 3.28 15.875 3.625C15.875 3.97 15.595 4.25 15.25 4.25V18C15.595 18 15.875 18.28 15.875 18.625C15.875 18.97 15.595 19.25 15.25 19.25Z" fill="#395E95"/>
<path d="M11.5 19.25H10.875C10.53 19.25 10.25 18.97 10.25 18.625V3.625C10.25 3.28 10.53 3 10.875 3H11.5C11.845 3 12.125 3.28 12.125 3.625C12.125 3.97 11.845 4.25 11.5 4.25V18C11.845 18 12.125 18.28 12.125 18.625C12.125 18.97 11.845 19.25 11.5 19.25Z" fill="#395E95"/>
<path d="M7.75 19.25H7.125C6.78 19.25 6.5 18.97 6.5 18.625V3.625C6.5 3.28 6.78 3 7.125 3H7.75C8.095 3 8.375 3.28 8.375 3.625C8.375 3.97 8.095 4.25 7.75 4.25V18C8.095 18 8.375 18.28 8.375 18.625C8.375 18.97 8.095 19.25 7.75 19.25Z" fill="#395E95"/>
<path d="M4 19.25H3.375C3.03 19.25 2.75 18.97 2.75 18.625V3.625C2.75 3.28 3.03 3 3.375 3H4C4.345 3 4.625 3.28 4.625 3.625C4.625 3.97 4.345 4.25 4 4.25V18C4.345 18 4.625 18.28 4.625 18.625C4.625 18.97 4.345 19.25 4 19.25Z" fill="#395E95"/>
<path d="M37.125 30.5H0.875C0.53 30.5 0.25 30.22 0.25 29.875C0.25 29.53 0.53 29.25 0.875 29.25H37.125C37.47 29.25 37.75 29.53 37.75 29.875C37.75 30.22 37.47 30.5 37.125 30.5Z" fill="#395E95"/>
<path d="M35.875 31.75C35.53 31.75 35.25 31.47 35.25 31.125V30.5H32.75V31.125C32.75 31.47 32.47 31.75 32.125 31.75C31.78 31.75 31.5 31.47 31.5 31.125V29.875C31.5 29.53 31.78 29.25 32.125 29.25H35.875C36.22 29.25 36.5 29.53 36.5 29.875V31.125C36.5 31.47 36.22 31.75 35.875 31.75Z" fill="#395E95"/>
<path d="M28.375 31.75C28.03 31.75 27.75 31.47 27.75 31.125V30.5H25.25V31.125C25.25 31.47 24.97 31.75 24.625 31.75C24.28 31.75 24 31.47 24 31.125V29.875C24 29.53 24.28 29.25 24.625 29.25H28.375C28.72 29.25 29 29.53 29 29.875V31.125C29 31.47 28.72 31.75 28.375 31.75Z" fill="#395E95"/>
<path d="M20.875 31.75C20.53 31.75 20.25 31.47 20.25 31.125V30.5H17.75V31.125C17.75 31.47 17.47 31.75 17.125 31.75C16.78 31.75 16.5 31.47 16.5 31.125V29.875C16.5 29.53 16.78 29.25 17.125 29.25H20.875C21.22 29.25 21.5 29.53 21.5 29.875V31.125C21.5 31.47 21.22 31.75 20.875 31.75Z" fill="#395E95"/>
<path d="M13.375 31.75C13.03 31.75 12.75 31.47 12.75 31.125V30.5H10.25V31.125C10.25 31.47 9.97 31.75 9.625 31.75C9.28 31.75 9 31.47 9 31.125V29.875C9 29.53 9.28 29.25 9.625 29.25H13.375C13.72 29.25 14 29.53 14 29.875V31.125C14 31.47 13.72 31.75 13.375 31.75Z" fill="#395E95"/>
<path d="M5.875 31.75C5.53 31.75 5.25 31.47 5.25 31.125V30.5H2.75V31.125C2.75 31.47 2.47 31.75 2.125 31.75C1.78 31.75 1.5 31.47 1.5 31.125V29.875C1.5 29.53 1.78 29.25 2.125 29.25H5.875C6.22 29.25 6.5 29.53 6.5 29.875V31.125C6.5 31.47 6.22 31.75 5.875 31.75Z" fill="#395E95"/>
<path d="M9.625 28.625C8.59125 28.625 7.75 27.7838 7.75 26.75C7.75 25.7162 8.59125 24.875 9.625 24.875C10.6588 24.875 11.5 25.7162 11.5 26.75C11.5 27.7838 10.6588 28.625 9.625 28.625ZM9.625 26.125C9.28125 26.125 9 26.405 9 26.75C9 27.095 9.28125 27.375 9.625 27.375C9.96875 27.375 10.25 27.095 10.25 26.75C10.25 26.405 9.96875 26.125 9.625 26.125Z" fill="#395E95"/>
<path d="M4.625 28.625C3.59125 28.625 2.75 27.7838 2.75 26.75C2.75 25.7162 3.59125 24.875 4.625 24.875C5.65875 24.875 6.5 25.7162 6.5 26.75C6.5 27.7838 5.65875 28.625 4.625 28.625ZM4.625 26.125C4.28125 26.125 4 26.405 4 26.75C4 27.095 4.28125 27.375 4.625 27.375C4.96875 27.375 5.25 27.095 5.25 26.75C5.25 26.405 4.96875 26.125 4.625 26.125Z" fill="#395E95"/>
<path d="M33.375 28.625C32.3412 28.625 31.5 27.7838 31.5 26.75C31.5 25.7162 32.3412 24.875 33.375 24.875C34.4088 24.875 35.25 25.7162 35.25 26.75C35.25 27.7838 34.4088 28.625 33.375 28.625ZM33.375 26.125C33.0312 26.125 32.75 26.405 32.75 26.75C32.75 27.095 33.0312 27.375 33.375 27.375C33.7188 27.375 34 27.095 34 26.75C34 26.405 33.7188 26.125 33.375 26.125Z" fill="#395E95"/>
<path d="M28.375 28.625C27.3412 28.625 26.5 27.7838 26.5 26.75C26.5 25.7162 27.3412 24.875 28.375 24.875C29.4088 24.875 30.25 25.7162 30.25 26.75C30.25 27.7838 29.4088 28.625 28.375 28.625ZM28.375 26.125C28.0312 26.125 27.75 26.405 27.75 26.75C27.75 27.095 28.0312 27.375 28.375 27.375C28.7188 27.375 29 27.095 29 26.75C29 26.405 28.7188 26.125 28.375 26.125Z" fill="#395E95"/>
<path d="M37.125 24.25H23.375C23.03 24.25 22.75 23.97 22.75 23.625C22.75 23.28 23.03 23 23.375 23H37.125C37.47 23 37.75 23.28 37.75 23.625C37.75 23.97 37.47 24.25 37.125 24.25Z" fill="#395E95"/>
<path d="M14.625 24.25H0.875C0.53 24.25 0.25 23.97 0.25 23.625C0.25 23.28 0.53 23 0.875 23H14.625C14.97 23 15.25 23.28 15.25 23.625C15.25 23.97 14.97 24.25 14.625 24.25Z" fill="#395E95"/>
<path d="M24 26.75H14C13.7638 26.75 13.5475 26.6163 13.4413 26.405L12.3638 24.25H2.125C1.78 24.25 1.5 23.97 1.5 23.625V21.125C1.5 20.78 1.78 20.5 2.125 20.5H35.875C36.22 20.5 36.5 20.78 36.5 21.125V23.625C36.5 23.97 36.22 24.25 35.875 24.25H25.6362L24.56 26.405C24.4525 26.6163 24.2362 26.75 24 26.75ZM14.3862 25.5H23.615L24.6912 23.345C24.7975 23.1337 25.0138 23 25.25 23H35.25V21.75H2.75V23H12.75C12.9862 23 13.2025 23.1337 13.3087 23.345L14.3862 25.5Z" fill="#395E95"/>
</svg>
