<svg width="40" height="40" viewBox="0 0 40 40" fill="none" xmlns="http://www.w3.org/2000/svg">
<path d="M22.5751 33.5625C21.5103 33.5625 20.6438 34.429 20.6438 35.4938C20.6438 36.5586 21.5103 37.4251 22.5751 37.4251C23.6399 37.4251 24.5064 36.5586 24.5064 35.4938C24.5064 34.429 23.6399 33.5625 22.5751 33.5625ZM22.5751 36.1376C22.2197 36.1376 21.9313 35.8492 21.9313 35.4938C21.9313 35.1384 22.2197 34.85 22.5751 34.85C22.9305 34.85 23.2189 35.1384 23.2189 35.4938C23.2189 35.8492 22.9305 36.1376 22.5751 36.1376Z" fill="#395E95"/>
<path d="M8.41227 33.5625C7.34747 33.5625 6.48096 34.429 6.48096 35.4938C6.48096 36.5586 7.34747 37.4251 8.41227 37.4251C9.47706 37.4251 10.3436 36.5586 10.3436 35.4938C10.3436 34.429 9.47706 33.5625 8.41227 33.5625ZM8.41227 36.1376C8.05691 36.1376 7.7685 35.8492 7.7685 35.4938C7.7685 35.1384 8.05691 34.85 8.41227 34.85C8.76763 34.85 9.05604 35.1384 9.05604 35.4938C9.05604 35.8492 8.76763 36.1376 8.41227 36.1376Z" fill="#395E95"/>
<path d="M30.3005 33.5625C29.2357 33.5625 28.3691 34.429 28.3691 35.4938C28.3691 36.5586 29.2357 37.4251 30.3005 37.4251C31.3652 37.4251 32.2318 36.5586 32.2318 35.4938C32.2318 34.429 31.3652 33.5625 30.3005 33.5625ZM30.3005 36.1376C29.9451 36.1376 29.6567 35.8492 29.6567 35.4938C29.6567 35.1384 29.9451 34.85 30.3005 34.85C30.6558 34.85 30.9442 35.1384 30.9442 35.4938C30.9442 35.8492 30.6558 36.1376 30.3005 36.1376Z" fill="#395E95"/>
<path d="M19.3564 29.6997H32.2318C32.9419 29.6997 33.5193 29.1222 33.5193 28.4121V19.3994C33.5193 18.6893 32.9419 18.1118 32.2318 18.1118H19.3564C18.6463 18.1118 18.0688 18.6893 18.0688 19.3994V28.4121C18.0688 29.1216 18.6463 29.6997 19.3564 29.6997ZM24.5065 19.3994H27.0816V21.9744H24.5065V19.3994ZM19.3564 19.3994H23.219V21.9744C23.219 22.6845 23.7965 23.262 24.5065 23.262H27.0816C27.7917 23.262 28.3692 22.6845 28.3692 21.9744V19.3994H32.2318L32.2331 28.4121H19.3564V19.3994Z" fill="#395E95"/>
<path d="M22.5752 25.8369H23.8627V27.1245H22.5752V25.8369Z" fill="#395E95"/>
<path d="M25.1501 25.8369H26.4377V27.1245H25.1501V25.8369Z" fill="#395E95"/>
<path d="M27.7253 25.8369H29.0129V27.1245H27.7253V25.8369Z" fill="#395E95"/>
<path d="M5.69609 29.6995H9.84068C10.8276 29.6995 11.631 28.8961 11.631 27.9092V26.3396C11.631 25.3527 10.8276 24.5493 9.84068 24.5493H6.08879C5.26605 24.5493 4.55146 25.1068 4.35254 25.9045L3.95919 27.4753C3.92314 27.6169 3.90576 27.763 3.90576 27.9092C3.90576 28.8961 4.70919 29.6995 5.69609 29.6995ZM5.20746 27.7875L5.60016 26.2173C5.65682 25.9933 5.85638 25.8369 6.08814 25.8369H9.84003C10.1175 25.8369 10.3428 26.0628 10.3428 26.3396V27.9092C10.3428 28.1866 10.1169 28.4119 9.84003 28.4119H5.69609C5.41927 28.4119 5.1933 28.186 5.1933 27.9092C5.1933 27.8673 5.19845 27.8261 5.20746 27.7875Z" fill="#395E95"/>
<path d="M37.4952 14.0509C37.7379 14.1803 38.0108 14.2492 38.2844 14.2492C39.207 14.2492 39.9576 13.4986 39.9576 12.576V11.6477C39.9576 11.0278 39.6183 10.4625 39.0718 10.1716L20.0001 0L0.929684 10.1716C0.38248 10.4625 0.0432129 11.0278 0.0432129 11.6477V12.576C0.0432129 13.4986 0.793849 14.2492 1.71637 14.2492C1.98997 14.2492 2.26293 14.181 2.50692 14.0509L5.19337 12.6115V21.9744H4.81097C3.59489 21.9744 2.56164 22.8036 2.29705 23.9914L0.104371 33.8617C0.0638135 34.0458 0.0432129 34.2325 0.0432129 34.4179V36.1374C0.0432129 36.8475 0.620674 37.4249 1.33075 37.4249H4.34681C5.0717 38.9449 6.61932 40 8.41222 40C10.2051 40 11.7521 38.9449 12.4776 37.4249H18.5098C19.2346 38.9449 20.7823 40 22.5752 40C24.2155 40 25.6492 39.1161 26.4378 37.8028C27.2264 39.1161 28.6601 40 30.3004 40C32.0933 40 33.6403 38.9449 34.3658 37.4249H38.6694C39.3795 37.4249 39.9569 36.8475 39.9569 36.1374V34.8498C39.9569 34.1398 39.3795 33.5623 38.6694 33.5623V16.8243C38.6694 16.1142 38.0919 15.5367 37.3819 15.5367H34.8068V12.6115L37.4952 14.0509ZM1.8992 12.916C1.65071 13.0473 1.33075 12.8516 1.33075 12.576V11.6477C1.33075 11.5048 1.40865 11.3748 1.53483 11.3085L20.0001 1.46007L38.466 11.3085C38.5915 11.3748 38.6694 11.5048 38.6694 11.6477V12.576C38.6694 12.8516 38.3456 13.0479 38.1022 12.9153L20.0001 3.21821L1.8992 12.916ZM27.0815 15.5367H14.2062C13.4961 15.5367 12.9186 16.1142 12.9186 16.8243V11.6741H27.0815V15.5367ZM11.6697 18.1118H12.9186V21.9744H6.62383C7.23477 19.729 9.28453 18.1118 11.6697 18.1118ZM3.55433 24.2708C3.68631 23.6766 4.20325 23.262 4.81097 23.262H12.9186V33.5623H12.4776C11.7527 32.0424 10.2051 30.9872 8.41222 30.9872C6.61932 30.9872 5.07234 32.0424 4.34681 33.5623H1.48976L3.55433 24.2708ZM1.33075 36.1374V34.8498H3.95733C3.92708 35.061 3.90583 35.2747 3.90583 35.4936C3.90583 35.7125 3.92708 35.9262 3.95733 36.1374H1.33075ZM8.41222 38.7125C6.63735 38.7125 5.19337 37.2685 5.19337 35.4936C5.19337 33.7187 6.63735 32.2748 8.41222 32.2748C10.1871 32.2748 11.6311 33.7187 11.6311 35.4936C11.6311 37.2685 10.1871 38.7125 8.41222 38.7125ZM12.8671 36.1374C12.8974 35.9262 12.9186 35.7125 12.9186 35.4936C12.9186 35.2747 12.8974 35.061 12.8671 34.8498H18.1203C18.09 35.061 18.0688 35.2747 18.0688 35.4936C18.0688 35.7125 18.09 35.9262 18.1203 36.1374H12.8671ZM22.5752 38.7125C20.8003 38.7125 19.3563 37.2685 19.3563 35.4936C19.3563 33.7187 20.8003 32.2748 22.5752 32.2748C24.35 32.2748 25.794 33.7187 25.794 35.4936C25.794 37.2685 24.35 38.7125 22.5752 38.7125ZM30.3004 38.7125C28.5255 38.7125 27.0815 37.2685 27.0815 35.4936C27.0815 33.7187 28.5255 32.2748 30.3004 32.2748C32.0753 32.2748 33.5192 33.7187 33.5192 35.4936C33.5192 37.2685 32.0753 38.7125 30.3004 38.7125ZM38.6694 36.1374H34.7553C34.7855 35.9262 34.8068 35.7125 34.8068 35.4936C34.8068 35.2747 34.7855 35.061 34.7553 34.8498H38.6694V36.1374ZM37.3819 33.5623H34.3658C33.6409 32.0424 32.0933 30.9872 30.3004 30.9872C28.6601 30.9872 27.2264 31.8711 26.4378 33.1844C25.6492 31.8711 24.2155 30.9872 22.5752 30.9872C20.7823 30.9872 19.2353 32.0424 18.5098 33.5623H14.2062V16.8243H37.3819V33.5623ZM33.5192 15.5367H28.3691V11.6741C28.3691 10.964 27.7916 10.3866 27.0815 10.3866H12.9186C12.2085 10.3866 11.6311 10.964 11.6311 11.6741V16.8262C9.54783 16.8384 7.67317 17.8414 6.48091 19.4071V11.922L20.0001 4.67956L33.5192 11.9213V15.5367Z" fill="#395E95"/>
</svg>
