<svg width="40" height="22" viewBox="0 0 40 22" fill="none" xmlns="http://www.w3.org/2000/svg">
<path d="M39.4615 10.8449L38.6737 10.0571L37.0866 5.29568C37.3234 5.22045 37.495 4.99896 37.495 4.73732C37.495 4.41373 37.2327 4.15139 36.9091 4.15139H31.2324V1.60623C31.2324 0.937793 30.6887 0.394043 30.0202 0.394043H1.21219C0.54375 0.394043 0 0.937871 0 1.60623V15.3839C0 16.0523 0.54375 16.5961 1.21219 16.5961H1.87875V17.8886C1.87875 18.557 2.4225 19.1008 3.09094 19.1008H4.44023C4.71492 20.5258 5.97078 21.6058 7.47477 21.6058C8.50461 21.6058 9.41781 21.099 9.97976 20.3223C10.5418 21.099 11.455 21.6058 12.4848 21.6058C13.9888 21.6058 15.2448 20.5258 15.5194 19.1008H30.1169C30.3916 20.5258 31.6474 21.6058 33.1514 21.6058C34.8558 21.6058 36.2423 20.2191 36.2423 18.5148C36.2423 18.5014 36.2415 18.4882 36.2413 18.4748H38.7877C39.4562 18.4748 39.9999 17.9311 39.9999 17.2626V12.1448C40 11.6538 39.8088 11.1922 39.4615 10.8449ZM4.44023 17.929H3.09094C3.06867 17.929 3.05063 17.9109 3.05063 17.8887V16.5962H5.05414C4.75102 16.9779 4.53594 17.4322 4.44023 17.929ZM7.47477 20.434C6.41656 20.434 5.5557 19.5731 5.5557 18.515C5.5557 17.4608 6.41016 16.6027 7.46281 16.5962H7.48688C8.53953 16.6026 9.39398 17.4608 9.39398 18.515C9.39391 19.5731 8.53297 20.434 7.47477 20.434ZM12.4849 20.434C11.4267 20.434 10.5658 19.5731 10.5658 18.515C10.5658 17.4608 11.4202 16.6027 12.4729 16.5962H12.497C13.5496 16.6026 14.4041 17.4608 14.4041 18.515C14.404 19.5731 13.5431 20.434 12.4849 20.434ZM30.117 17.929H15.5195C15.4237 17.4322 15.2087 16.9778 14.9055 16.5961H26.2626C26.5862 16.5961 26.8485 16.3337 26.8485 16.0101C26.8485 15.6865 26.5862 15.4242 26.2626 15.4242H1.21219C1.18992 15.4242 1.17188 15.4062 1.17188 15.3839V1.60623C1.17188 1.58396 1.18992 1.56592 1.21219 1.56592H30.0202C30.0424 1.56592 30.0605 1.58396 30.0605 1.60623V15.4243H28.7679C28.4443 15.4243 28.182 15.6866 28.182 16.0102C28.182 16.3338 28.4443 16.5962 28.7679 16.5962H30.7309C30.4277 16.9779 30.2127 17.4322 30.117 17.929ZM37.5573 10.4139H33.7777C33.7555 10.4139 33.7374 10.3958 33.7374 10.3736V7.82818H36.6955L37.5573 10.4139ZM33.1515 20.434C32.0933 20.434 31.2324 19.5731 31.2324 18.515C31.2324 17.4608 32.0869 16.6027 33.1395 16.5962H33.1516C33.1529 16.5962 33.1542 16.596 33.1556 16.5959C34.212 16.5981 35.0707 17.4581 35.0707 18.5149C35.0705 19.5731 34.2097 20.434 33.1515 20.434ZM38.8281 17.2628C38.8281 17.2851 38.8101 17.3031 38.7878 17.3031H35.9947C35.5224 16.1994 34.4259 15.424 33.1515 15.424C33.1474 15.424 33.1435 15.4244 33.1395 15.4244H31.2324V5.36381V5.3635C31.2324 5.34123 31.2505 5.32318 31.2727 5.32318H35.8605L36.3048 6.65631H33.1515C32.8279 6.65631 32.5655 6.91865 32.5655 7.24225V10.3736C32.5655 11.042 33.1093 11.5858 33.7777 11.5858H38.5451L38.6329 11.6736C38.7588 11.7995 38.8281 11.9669 38.8281 12.1449V13.5455H38.1616C37.838 13.5455 37.5756 13.8079 37.5756 14.1315C37.5756 14.4551 37.838 14.7174 38.1616 14.7174H38.8281V17.2628Z" fill="#395E95"/>
</svg>
